REM DIRINDEX 1\2,1\3,1\4,1\5
REM DIRNAME folder01,folder02,folder03,folder04,folder05
TITLE ""
FILE "1Q_j_2325-2338.mp3" MP3
  TRACK 01 AUDIO
    TITLE "3:cjc004_0674"
    INDEX 01 00:00:00
  TRACK 02 AUDIO
    TITLE "0:"
    INDEX 01 00:01:19
  TRACK 03 AUDIO
    TITLE "4:cjc004_0675"
    INDEX 01 00:01:48
  TRACK 04 AUDIO
    TITLE "0:"
    INDEX 01 00:02:69
  TRACK 05 AUDIO
    TITLE "5:cjc004_0676"
    INDEX 01 00:03:23
  TRACK 06 AUDIO
    TITLE "0:"
    INDEX 01 00:07:19
  TRACK 07 AUDIO
    TITLE "3:cjc004_0677"
    INDEX 01 00:07:72
  TRACK 08 AUDIO
    TITLE "0:"
    INDEX 01 00:09:16
  TRACK 09 AUDIO
    TITLE "4:cjc004_0678"
    INDEX 01 00:09:45
  TRACK 10 AUDIO
    TITLE "0:"
    INDEX 01 00:10:61
  TRACK 11 AUDIO
    TITLE "5:cjc004_0679"
    INDEX 01 00:11:11
  TRACK 12 AUDIO
    TITLE "0:"
    INDEX 01 00:15:32
  TRACK 13 AUDIO
    TITLE "3:cjc004_0680"
    INDEX 01 00:16:12
  TRACK 14 AUDIO
    TITLE "0:"
    INDEX 01 00:17:37
  TRACK 15 AUDIO
    TITLE "4:cjc004_0681"
    INDEX 01 00:17:63
  TRACK 16 AUDIO
    TITLE "0:"
    INDEX 01 00:19:07
  TRACK 17 AUDIO
    TITLE "5:cjc004_0682"
    INDEX 01 00:19:32
  TRACK 18 AUDIO
    TITLE "0:"
    INDEX 01 00:24:43
  TRACK 19 AUDIO
    TITLE "3:cjc004_0683"
    INDEX 01 00:25:27
  TRACK 20 AUDIO
    TITLE "0:"
    INDEX 01 00:26:58
  TRACK 21 AUDIO
    TITLE "4:cjc004_0684"
    INDEX 01 00:27:14
  TRACK 22 AUDIO
    TITLE "0:"
    INDEX 01 00:28:15
  TRACK 23 AUDIO
    TITLE "5:cjc004_0685"
    INDEX 01 00:28:39
  TRACK 24 AUDIO
    TITLE "0:"
    INDEX 01 00:32:05
  TRACK 25 AUDIO
    TITLE "3:cjc004_0686"
    INDEX 01 00:32:62
  TRACK 26 AUDIO
    TITLE "0:"
    INDEX 01 00:34:12
  TRACK 27 AUDIO
    TITLE "4:cjc004_0687"
    INDEX 01 00:34:40
  TRACK 28 AUDIO
    TITLE "0:"
    INDEX 01 00:36:13
  TRACK 29 AUDIO
    TITLE "5:cjc004_0688"
    INDEX 01 00:36:36
  TRACK 30 AUDIO
    TITLE "0:"
    INDEX 01 00:44:18
  TRACK 31 AUDIO
    TITLE "3:cjc004_0689"
    INDEX 01 00:44:69
  TRACK 32 AUDIO
    TITLE "0:"
    INDEX 01 00:46:51
  TRACK 33 AUDIO
    TITLE "4:cjc004_0690"
    INDEX 01 00:47:07
  TRACK 34 AUDIO
    TITLE "0:"
    INDEX 01 00:49:04
  TRACK 35 AUDIO
    TITLE "5:cjc004_0691"
    INDEX 01 00:49:27
  TRACK 36 AUDIO
    TITLE "0:"
    INDEX 01 00:55:01
  TRACK 37 AUDIO
    TITLE "3:cjc004_0692"
    INDEX 01 00:55:53
  TRACK 38 AUDIO
    TITLE "0:"
    INDEX 01 00:57:09
  TRACK 39 AUDIO
    TITLE "4:cjc004_0693"
    INDEX 01 00:57:41
  TRACK 40 AUDIO
    TITLE "0:"
    INDEX 01 00:58:64
  TRACK 41 AUDIO
    TITLE "5:cjc004_0694"
    INDEX 01 00:59:14
  TRACK 42 AUDIO
    TITLE "0:"
    INDEX 01 01:05:24
  TRACK 43 AUDIO
    TITLE "3:cjc004_0695"
    INDEX 01 01:06:04
  TRACK 44 AUDIO
    TITLE "0:"
    INDEX 01 01:07:27
  TRACK 45 AUDIO
    TITLE "4:cjc004_0696"
    INDEX 01 01:07:61
  TRACK 46 AUDIO
    TITLE "0:"
    INDEX 01 01:09:03
  TRACK 47 AUDIO
    TITLE "5:cjc004_0697"
    INDEX 01 01:09:34
  TRACK 48 AUDIO
    TITLE "0:"
    INDEX 01 01:15:64
  TRACK 49 AUDIO
    TITLE "3:cjc004_0698"
    INDEX 01 01:16:44
  TRACK 50 AUDIO
    TITLE "0:"
    INDEX 01 01:17:69
  TRACK 51 AUDIO
    TITLE "4:cjc004_0699"
    INDEX 01 01:18:27
  TRACK 52 AUDIO
    TITLE "0:"
    INDEX 01 01:20:28
  TRACK 53 AUDIO
    TITLE "5:cjc004_0700"
    INDEX 01 01:20:55
  TRACK 54 AUDIO
    TITLE "0:"
    INDEX 01 01:24:55
  TRACK 55 AUDIO
    TITLE "3:cjc004_0701"
    INDEX 01 01:25:33
  TRACK 56 AUDIO
    TITLE "0:"
    INDEX 01 01:26:70
  TRACK 57 AUDIO
    TITLE "4:cjc004_0702"
    INDEX 01 01:27:28
  TRACK 58 AUDIO
    TITLE "0:"
    INDEX 01 01:28:35
  TRACK 59 AUDIO
    TITLE "5:cjc004_0703"
    INDEX 01 01:28:61
  TRACK 60 AUDIO
    TITLE "0:"
    INDEX 01 01:32:31
  TRACK 61 AUDIO
    TITLE "3:cjc004_0704"
    INDEX 01 01:33:17
  TRACK 62 AUDIO
    TITLE "0:"
    INDEX 01 01:34:42
  TRACK 63 AUDIO
    TITLE "4:cjc004_0705"
    INDEX 01 01:34:71
  TRACK 64 AUDIO
    TITLE "0:"
    INDEX 01 01:36:15
  TRACK 65 AUDIO
    TITLE "5:cjc004_0706"
    INDEX 01 01:36:45
  TRACK 66 AUDIO
    TITLE "0:"
    INDEX 01 01:40:64
  TRACK 67 AUDIO
    TITLE "3:cjc004_0707"
    INDEX 01 01:41:38
  TRACK 68 AUDIO
    TITLE "0:"
    INDEX 01 01:42:73
  TRACK 69 AUDIO
    TITLE "4:cjc004_0708"
    INDEX 01 01:43:19
  TRACK 70 AUDIO
    TITLE "0:"
    INDEX 01 01:44:46
  TRACK 71 AUDIO
    TITLE "5:cjc004_0709"
    INDEX 01 01:45:00
  TRACK 72 AUDIO
    TITLE "0:"
    INDEX 01 01:49:43
  TRACK 73 AUDIO
    TITLE "3:cjc004_0710"
    INDEX 01 01:50:15
  TRACK 74 AUDIO
    TITLE "0:"
    INDEX 01 01:51:34
  TRACK 75 AUDIO
    TITLE "4:cjc004_0711"
    INDEX 01 01:51:62
  TRACK 76 AUDIO
    TITLE "0:"
    INDEX 01 01:53:55
  TRACK 77 AUDIO
    TITLE "5:cjc004_0712"
    INDEX 01 01:54:01
  TRACK 78 AUDIO
    TITLE "0:"
    INDEX 01 02:00:72
  TRACK 79 AUDIO
    TITLE "3:cjc004_0713"
    INDEX 01 02:01:52
  TRACK 80 AUDIO
    TITLE "0:"
    INDEX 01 02:02:58
  TRACK 81 AUDIO
    TITLE "4:cjc004_0714"
    INDEX 01 02:03:22
  TRACK 82 AUDIO
    TITLE "0:"
    INDEX 01 02:04:31
  TRACK 83 AUDIO
    TITLE "5:cjc004_0715"
    INDEX 01 02:04:53
  TRACK 84 AUDIO
    TITLE "0:"
    INDEX 01 02:09:13
